<svg xmlns="http://www.w3.org/2000/svg" width="20.15" height="18.754" viewBox="0 0 20.15 18.754">
    <path data-name="Path 22" d="m182.072 35.5-7.472 5.55 1.382-3.274z" transform="translate(-163.376 -35)" style="stroke-linecap:round;stroke-linejoin:round;fill:#e2761b;stroke:#e2761b"/>
    <g data-name="Group 25">
        <path data-name="Path 23" d="m44.4 35.5 7.412 5.6-1.312-3.324z" transform="translate(-42.953 -35)" style="fill:#e4761b;stroke:#e4761b;stroke-linecap:round;stroke-linejoin:round"/>
        <path data-name="Path 24" d="m213.79 206.8-1.99 3.049 4.258 1.172 1.224-4.153z" transform="translate(-197.782 -193.435)" style="fill:#e4761b;stroke:#e4761b;stroke-linecap:round;stroke-linejoin:round"/>
        <path data-name="Path 25" d="m33.9 206.868 1.217 4.153 4.258-1.172-1.99-3.049z" transform="translate(-33.242 -193.435)" style="fill:#e4761b;stroke:#e4761b;stroke-linecap:round;stroke-linejoin:round"/>
        <path data-name="Path 26" d="m88.987 106.661-1.187 1.795 4.228.188-.15-4.544z" transform="translate(-83.094 -98.448)" style="fill:#e4761b;stroke:#e4761b;stroke-linecap:round;stroke-linejoin:round"/>
        <path data-name="Path 27" d="M177.627 106.013 174.7 103.4l-.1 4.6 4.221-.188z" transform="translate(-163.376 -97.801)" style="fill:#e4761b;stroke:#e4761b;stroke-linecap:round;stroke-linejoin:round"/>
        <path data-name="Path 28" d="m106.8 211.051 2.538-1.239-2.193-1.712z" transform="translate(-100.667 -194.638)" style="fill:#e4761b;stroke:#e4761b;stroke-linecap:round;stroke-linejoin:round"/>
        <path data-name="Path 29" d="m177.9 209.812 2.546 1.239-.353-2.951z" transform="translate(-166.428 -194.638)" style="fill:#e4761b;stroke:#e4761b;stroke-linecap:round;stroke-linejoin:round"/>
    </g>
    <g data-name="Group 26">
        <path data-name="Path 30" d="M180.446 232.139 177.9 230.9l.2 1.66-.023.7z" transform="translate(-166.428 -215.726)" style="fill:#d7c1b3;stroke:#d7c1b3;stroke-linecap:round;stroke-linejoin:round"/>
        <path data-name="Path 31" d="m106.8 232.139 2.366 1.119-.015-.7.188-1.66z" transform="translate(-100.668 -215.726)" style="fill:#d7c1b3;stroke:#d7c1b3;stroke-linecap:round;stroke-linejoin:round"/>
    </g>
    <path data-name="Path 32" d="m112.718 177.407-2.118-.623 1.494-.683z" transform="translate(-104.182 -165.041)" style="fill:#233447;stroke:#233447;stroke-linecap:round;stroke-linejoin:round"/>
    <path data-name="Path 33" d="m179.7 177.407.623-1.307 1.5.683z" transform="translate(-168.093 -165.041)" style="fill:#233447;stroke:#233447;stroke-linecap:round;stroke-linejoin:round"/>
    <g data-name="Group 27">
        <path data-name="Path 34" d="m82.29 209.849.36-3.049-2.351.068z" transform="translate(-76.158 -193.435)" style="fill:#cd6116;stroke:#cd6116;stroke-linecap:round;stroke-linejoin:round"/>
        <path data-name="Path 35" d="m207 206.8.36 3.049 1.99-2.981z" transform="translate(-193.343 -193.435)" style="fill:#cd6116;stroke:#cd6116;stroke-linecap:round;stroke-linejoin:round"/>
        <path data-name="Path 36" d="m178.821 162.1-4.221.188.391 2.17.623-1.307 1.5.683z" transform="translate(-163.376 -152.092)" style="fill:#cd6116;stroke:#cd6116;stroke-linecap:round;stroke-linejoin:round"/>
        <path data-name="Path 37" d="m89.512 163.835 1.5-.683.616 1.307.4-2.17-4.228-.189z" transform="translate(-83.095 -152.092)" style="fill:#cd6116;stroke:#cd6116;stroke-linecap:round;stroke-linejoin:round"/>
    </g>
    <g data-name="Group 28">
        <path data-name="Path 38" d="m87.8 162.1 1.772 3.455-.06-1.72z" transform="translate(-83.094 -152.092)" style="fill:#e4751f;stroke:#e4751f;stroke-linecap:round;stroke-linejoin:round"/>
        <path data-name="Path 39" d="m207.175 163.835-.075 1.72 1.78-3.455z" transform="translate(-193.435 -152.092)" style="fill:#e4751f;stroke:#e4751f;stroke-linecap:round;stroke-linejoin:round"/>
        <path data-name="Path 40" d="m139.2 164.6-.4 2.17.5 2.561.113-3.372z" transform="translate(-130.264 -154.404)" style="fill:#e4751f;stroke:#e4751f;stroke-linecap:round;stroke-linejoin:round"/>
        <path data-name="Path 41" d="m172.1 164.6-.2 1.352.09 3.379.5-2.561z" transform="translate(-160.878 -154.404)" style="fill:#e4751f;stroke:#e4751f;stroke-linecap:round;stroke-linejoin:round"/>
    </g>
    <path data-name="Path 42" d="m173.6 185.823-.5 2.561.36.248 2.193-1.712.075-1.72z" transform="translate(-161.988 -173.458)" style="fill:#f6851b;stroke:#f6851b;stroke-linecap:round;stroke-linejoin:round"/>
    <path data-name="Path 43" d="m110.6 185.2.06 1.72 2.193 1.712.36-.248-.5-2.561z" transform="translate(-104.182 -173.458)" style="fill:#f6851b;stroke:#f6851b;stroke-linecap:round;stroke-linejoin:round"/>
    <path data-name="Path 44" d="m112.32 248.519.023-.7-.188-.165h-2.831l-.173.165.015.7-2.366-1.119.826.676 1.675 1.164h2.876l1.682-1.164.826-.676z" transform="translate(-100.668 -230.986)" style="fill:#c0ad9e;stroke:#c0ad9e;stroke-linecap:round;stroke-linejoin:round"/>
    <path data-name="Path 45" d="m141.089 227.848-.36-.248h-2.08l-.36.248-.188 1.66.173-.165h2.826l.188.165z" transform="translate(-129.617 -212.673)" style="fill:#161616;stroke:#161616;stroke-linecap:round;stroke-linejoin:round"/>
    <g data-name="Group 29">
        <path data-name="Path 46" d="m185.44 41.41.638-3.064-.954-2.846-7.224 5.362 2.779 2.351 3.928 1.149.871-1.014-.376-.27.6-.548-.466-.36.6-.458z" transform="translate(-166.428 -35)" style="fill:#763d16;stroke:#763d16;stroke-linecap:round;stroke-linejoin:round"/>
        <path data-name="Path 47" d="m31.8 38.346.638 3.064-.406.3.6.458-.458.36.6.548-.375.27.864 1.014 3.928-1.149 2.779-2.351-7.224-5.36z" transform="translate(-31.3 -35)" style="fill:#763d16;stroke:#763d16;stroke-linecap:round;stroke-linejoin:round"/>
    </g>
    <path data-name="Path 48" d="m211.613 139.349-3.928-1.149 1.194 1.795-1.78 3.455 2.343-.03h3.492z" transform="translate(-193.435 -129.987)" style="fill:#f6851b;stroke:#f6851b;stroke-linecap:round;stroke-linejoin:round"/>
    <path data-name="Path 49" d="m39.134 138.2-3.928 1.149-1.307 4.07h3.485l2.336.03-1.772-3.455z" transform="translate(-33.242 -129.987)" style="fill:#f6851b;stroke:#f6851b;stroke-linecap:round;stroke-linejoin:round"/>
    <path data-name="Path 50" d="m129.28 73.22.248-4.333 1.142-3.087h-5.07l1.127 3.087.263 4.333.09 1.367.007 3.364h2.08l.015-3.364z" transform="translate(-118.056 -63.024)" style="fill:#f6851b;stroke:#f6851b;stroke-linecap:round;stroke-linejoin:round"/>
</svg>
