<svg xmlns="http://www.w3.org/2000/svg" width="96.833" height="23.949" viewBox="0 0 96.833 23.949">
    <defs>
        <linearGradient id="h4s94pakma" x1=".5" x2=".5" y2="1" gradientUnits="objectBoundingBox">
            <stop offset="0" stop-color="#0b12e1"/>
            <stop offset="1" stop-color="#797dee"/>
        </linearGradient>
    </defs>
    <g data-name="Group 13">
        <g data-name="Group 14">
            <text transform="translate(32.833 17.746)" style="fill:#fff;font-size:18px;font-family:Clash Display Variable;font-weight:500"><tspan x="0" y="0">Swaple</tspan></text>
            <g data-name="Group 12">
                <path data-name="Path 10" d="M3.777 1.407a1.847 1.847 0 0 0-.8.119c-1.914.991-.684 9.574.669 11a1.661 1.661 0 0 0 .856.461.852.852 0 0 0 .447-.276 7.219 7.219 0 0 0-.413-2.244c-.486-1.743-.946-3.39.214-4.514a3.68 3.68 0 0 1 2.675-.9 13.046 13.046 0 0 1 2.186.25 11.129 11.129 0 0 0 1.669.197c.342 0 .439-.012.619-.288.016-.061-.064-.409-.746-.993a13.9 13.9 0 0 0-7.376-2.812m0-1.407C8.032 0 15.092 3.647 13.7 5.8c-1.321 2.036-4.439.653-6.276.653a1.508 1.508 0 0 0-1.083.328C5.074 8 7.781 12.2 6.65 13.422a3.122 3.122 0 0 1-4.525 0C.542 12.069-1.58 2.144 1.811.388A4.324 4.324 0 0 1 3.777 0z" transform="rotate(60 9.546 16.535)" style="fill:url(#h4s94pakma)"/>
                <path data-name="Path 10" d="M3.777 1.407a1.847 1.847 0 0 0-.8.119c-1.914.991-.684 9.574.669 11a1.661 1.661 0 0 0 .856.461.852.852 0 0 0 .447-.276 7.219 7.219 0 0 0-.413-2.244c-.486-1.743-.946-3.39.214-4.514a3.68 3.68 0 0 1 2.675-.9 13.047 13.047 0 0 1 2.186.25 11.129 11.129 0 0 0 1.669.197c.342 0 .439-.012.619-.288.016-.061-.064-.409-.746-.993a13.9 13.9 0 0 0-7.376-2.812m0-1.407C8.032 0 15.092 3.647 13.7 5.8c-1.321 2.036-4.439.653-6.276.653a1.508 1.508 0 0 0-1.083.328C5.074 8 7.781 12.2 6.65 13.422a3.122 3.122 0 0 1-4.525 0C.542 12.069-1.58 2.144 1.811.388A4.324 4.324 0 0 1 3.777 0z" transform="rotate(-120 10.382 9.971)" style="fill:url(#h4s94pakma)"/>
            </g>
        </g>
    </g>
</svg>
